# xmcd
#
# Track frame offsets:
#	150
#	21167
#	38522
#	55832
#
# Disc length: 921 seconds
#
# Revision: 0
# Processed by: cddbd v1.5.2PL0 Copyright (c) Steve Scherf et al.
# Submitted via: audiograbber 1.80
#
DISCID=26039704
DTITLE=Trini Lopez - 1989 3 inch Single
DYEAR=1900
DGENRE=
TTITLE0=La Bamba
TTITLE1=This Land is Your Land
TTITLE2=America
TTITLE3=If I Had A Hammer
EXTD=
EXTT0=
EXTT1=
EXTT2=
EXTT3=
PLAYORDER=
